<svg xmlns="http://www.w3.org/2000/svg" xmlns:xlink="http://www.w3.org/1999/xlink" version="1.1" id="Layer_1" x="0px" y="0px" width="146.435px" height="17.422px" viewBox="0 0 146.435 17.422" enable-background="new 0 0 146.435 17.422" xml:space="preserve">
<g>
	<path fill="#F9F9FA" d="M53.792 13.758h-0.335c-0.336 0-0.586-0.076-0.751-0.219c-0.158-0.145-0.239-0.398-0.239-0.754l0.003-0.586 c0-1.107-0.191-1.982-0.569-2.611C51.516 9 50.8 8.6 49.8 8.5V8.455c0.978-0.152 1.679-0.57 2.124-1.254 c0.438-0.68 0.66-1.58 0.66-2.693c0-0.637-0.082-1.229-0.243-1.768c-0.159-0.539-0.42-1.012-0.781-1.404 c-0.362-0.396-0.828-0.697-1.402-0.914c-0.572-0.223-1.268-0.326-2.076-0.326h-5.124V0l-0.008 0.096h-0.003l-2.438-0.047 l0.316 5.529l0.145 5.498l-0.051 5.713l4.755-0.152L45.2 10.023h1.605c0.27 0 0.5 0 0.7 0.1 c0.176 0.1 0.3 0.2 0.4 0.371c0.113 0.2 0.2 0.4 0.2 0.727c0.046 0.3 0.1 0.7 0.1 1.156v1.107 c0 0 0.1 1.3 0.2 1.678c0.13 0.4 0.3 0.7 0.6 0.963c0.283 0.2 0.6 0.4 1.1 0.4 c0.45 0.1 1 0.1 1.6 0.084c0.352 0 0.8 0 1.1 0.012c0.507-0.018 0.859-0.043 1.262-0.098L53.792 13.758z M47.851 6.713c-0.324 0.404-0.83 0.609-1.508 0.609h-1.107L45.16 3.119l1.153-0.131c0.714 0 1.2 0.2 1.5 0.5 c0.312 0.3 0.5 0.9 0.5 1.646C48.332 5.8 48.2 6.3 47.9 6.713z"/>
	<path fill="#F9F9FA" d="M102.919 11.236v4.562h4.327l-0.505-4.344L102.919 11.236z M111.718 6.5 c0.099-0.305 0.222-0.514 0.389-0.627c0.163-0.117 0.511-0.174 0.744-0.174c0.451 0 0.8 0.2 0.9 0.5 c0.092 0.2 0.2 0.5 0.2 0.771c0.049 0.3 0.1 0.7 0.1 1.234h3.715c0-0.783-0.074-1.494-0.22-2.135 c-0.146-0.639-0.396-1.182-0.756-1.639c-0.364-0.455-0.846-0.805-1.453-1.062c-0.606-0.252-1.366-0.379-2.281-0.379 c-0.785 0-1.518 0.078-2.187 0.229c-0.677 0.154-1.262 0.473-1.759 0.949c-0.499 0.48-0.896 1.162-1.186 2.1 c-0.288 0.891-0.437 2.078-0.437 3.561c0 1.4 0.1 2.4 0.4 3.27c0.26 0.8 0.6 1.5 1.1 1.9 c0.464 0.5 1 0.8 1.7 0.895c0.656 0.1 1.4 0.2 2.2 0.205c1.757 0 3.028-0.414 3.813-1.24 c0.395-0.445 0.679-1.018 0.853-1.705c0.167-0.697 0.251-1.066 0.251-2.051l-3.715-0.469v0.809c0 0.785-0.108 1.324-0.315 1.6 c-0.209 0.289-0.502 0.438-0.893 0.438c-0.233 0-0.58-0.059-0.744-0.172c-0.167-0.115-0.29-0.322-0.389-0.613 c-0.085-0.297-0.058-0.691-0.099-1.197c-0.036-0.498-0.058-1.135-0.058-1.908c0-0.775 0.021-1.41 0.058-1.912 C111.66 7.2 111.6 6.8 111.7 6.459z M128.992 7.02c-0.101-0.801-0.332-1.498-0.683-2.096 c-0.358-0.604-0.881-1.076-1.592-1.422c-0.705-0.346-1.669-0.52-2.887-0.52c-1.166 0-2.097 0.188-2.797 0.6 c-0.699 0.377-1.239 0.875-1.606 1.492c-0.373 0.617-0.611 1.314-0.73 2.098c-0.116 0.791-0.169 1.592-0.169 2.4 c0 0.9 0 1.8 0.2 2.555c0.1 0.8 0.3 1.5 0.7 2.08c0.353 0.6 0.9 1.1 1.6 1.4 c0.711 0.3 1.7 0.5 2.9 0.492c1.173 0 2.104-0.182 2.81-0.541c0.693-0.363 1.23-0.85 1.597-1.459 c0.372-0.611 0.616-1.303 0.729-2.088c0.114-0.789 0.174-1.592 0.174-2.408C129.141 8.7 129.1 7.8 129 7.02z M124.265 13.445l-0.419 0.023c-0.511 0.027-0.942-0.363-0.968-0.875l-0.311-5.92c-0.026-0.51 0.363-0.945 0.872-0.971l0.419-0.025 c0.51-0.025 0.9 0.4 1 0.875l0.308 5.92C125.163 13 124.8 13.4 124.3 13.445z"/>
	<path fill="#F9F9FA" d="M146.177 4.717c-0.165-0.432-0.394-0.779-0.687-1.043c-0.291-0.262-0.628-0.441-1.019-0.541 c-0.392-0.1-0.816-0.15-1.275-0.15c-0.644 0-1.244 0.143-1.803 0.424c-0.557 0.285-0.996 0.783-1.316 1.5 c-0.262-0.648-0.617-1.131-1.068-1.449c-0.445-0.309-1.102-0.469-1.954-0.469c-1.464 0-2.462 0.613-2.994 1.844h-0.381l0.31-1.545 h-3.985v12.207l4.592 0.463l-0.465-8.4c0-0.525 0.077-0.9 0.226-1.131c0.158-0.232 0.421-0.346 0.79-0.346 c0.363 0 0.6 0.1 0.8 0.346c0.152 0.2 0.2 0.6 0.2 1.131v8.094l4.129-0.006V7.551c0-0.15 0.006-0.287 0.021-0.412 V6.873c0-0.453 0.365-0.822 0.818-0.822h0.376c0.453 0 0.8 0.4 0.8 0.822l-0.02 0.404c0.005 0.1 0 0.2 0 0.3 l-0.125 2.209l-0.284 5.885l4.536 0.307V6.375C146.435 5.7 146.3 5.1 146.2 4.717z"/>
	<path fill="#F9F9FA" d="M91.347 5.482c-0.162-0.432-0.393-0.779-0.685-1.041c-0.29-0.264-0.63-0.443-1.02-0.545 c-0.391-0.1-0.814-0.15-1.276-0.15c-0.641 0-1.241 0.143-1.798 0.428c-0.56 0.283-0.998 0.783-1.321 1.5 c-0.257-0.648-0.616-1.131-1.066-1.445c-0.445-0.314-1.103-0.475-1.957-0.475c-1.462 0-2.462 0.617-2.992 1.846h-0.226l0.156-1.545 h-3.986v12.516h4.592l-0.465-8.244c0-0.527 0.078-0.9 0.227-1.133c0.155-0.23 0.421-0.348 0.79-0.348 c0.359 0 0.6 0.1 0.8 0.348c0.151 0.2 0.2 0.6 0.2 1.133v8.244l4.126-0.467V8.318c0-0.154 0.007-0.287 0.02-0.416 V7.641c0-0.455 0.365-0.826 0.817-0.826h0.377c0.452 0 0.8 0.4 0.8 0.826L87.47 8.045c0.005 0.1 0 0.2 0 0.3 l-0.128 2.207l-0.279 6.037l4.533-0.016V7.141C91.605 6.5 91.5 5.9 91.3 5.482z"/>
	<path fill="#F9F9FA" d="M4.274 13.633L4.745 0.156L0 0.625v16.516h10.106l-0.465-3.918L4.274 13.633z M21.745 14.4 c-0.334 0-0.588-0.076-0.748-0.219c-0.158-0.145-0.237-0.398-0.237-0.752l-0.02-5.07l-0.003 0 c-0.001-0.811-0.119-1.471-0.355-1.98c-0.239-0.518-0.576-0.926-1.018-1.225c-0.438-0.305-0.957-0.51-1.568-0.627 c-0.608-0.113-1.271-0.172-1.997-0.172c-0.471 0-0.986 0.053-1.545 0.152c-0.553 0.1-1.069 0.301-1.547 0.6 c-0.476 0.305-0.871 0.729-1.197 1.277c-0.321 0.549-0.482 0.811-0.482 1.719l3.597 0.475c0.018-0.678 0.115-1.127 0.304-1.357 c0.182-0.227 0.481-0.34 0.878-0.34c0.714 0 1.1 0.4 1.1 1.156c0 0.387-0.094 0.684-0.276 0.9 c-0.185 0.209-0.502 0.367-0.949 0.473L14.01 9.791c-0.667 0.148-1.223 0.342-1.664 0.566c-0.453 0.227-0.809 0.488-1.072 0.8 c-0.259 0.314-0.446 0.688-0.562 1.119c-0.116 0.436-0.172 0.945-0.172 1.531c0 0.5 0.1 1 0.2 1.5 c0.118 0.4 0.3 0.8 0.6 1.158c0.275 0.3 0.6 0.6 1.1 0.729c0.441 0.2 1 0.2 1.6 0.2 c0.643 0 1.218-0.135 1.723-0.418c0.5-0.277 0.867-0.695 1.097-1.26h0.203l0.003 0.045c0.131 0.4 0.3 0.7 0.6 1 c0.28 0.2 0.6 0.4 1.1 0.402c0.45 0.1 0.8 0.1 1.4 0.084c0.348 0 0.8 0 1.1 0 c0.385-0.031 0.5 0 0.885-0.045l-0.182-2.822H21.745z M16.999 12.441c0 0.758-0.11 1.324-0.332 1.7 c-0.226 0.371-0.596 0.557-1.106 0.557c-0.339 0-0.613-0.135-0.818-0.406c-0.205-0.273-0.308-0.633-0.308-1.088 c0-0.453 0.069-0.822 0.208-1.1c0.133-0.279 0.384-0.5 0.741-0.672c0.343-0.15 0.65-0.248 0.937-0.289 c0.279-0.037 0.672-0.082 0.7 0.199l0.007 0.18V12.441z M27.872 14.359c-0.334 0-0.586-0.074-0.747-0.217 c-0.159-0.145-0.238-0.398-0.238-0.754V7.418h1.477l0.774-3.104l-2.68 0.412L26.887 0.5l-4.128 0.469v4.133L21.377 5.2 L21.363 5.85h0.014v1.568h1.382v6.672c0 0.7 0.1 1.3 0.2 1.678c0.131 0.4 0.3 0.7 0.6 1 c0.282 0.2 0.6 0.4 1.1 0.404c0.455 0.1 1 0.1 1.6 0.084c0.352 0 0.8 0 1.1 0 c0.384-0.029 1.183-0.029 1.58-0.086l-0.469-2.781H27.872z M32.408 12.66V11.6h6.616v-1.27c0-1.143-0.104-2.09-0.312-2.855 c-0.202-0.76-0.522-1.375-0.94-1.848c-0.424-0.467-0.94-0.805-1.563-1.002c-0.619-0.199-1.347-0.301-2.173-0.301 c-0.933 0-1.736 0.119-2.406 0.355c-0.662 0.24-1.21 0.621-1.636 1.143c-0.434 0.521-0.744 1.205-0.944 2 c-0.201 0.828-0.299 1.85-0.299 3.053c0 1.2 0.1 2.2 0.3 3.023c0.178 0.8 0.5 1.5 0.9 2 c0.418 0.5 1 0.9 1.6 1.105c0.676 0.2 1.5 0.3 2.5 0.332c1.72 0 2.949-0.385 3.702-1.17 c0.754-0.781 1.14-1.475 1.173-3.016l-3.711-0.469c0 0.848-0.103 1.418-0.315 1.719c-0.01 0.01-0.014 0.02-0.023 0 c-0.059 0.086-0.135 0.164-0.225 0.229c-0.012 0.01-0.024 0.02-0.038 0.027c-0.182 0.119-0.401 0.195-0.648 0.195l-0.485-0.004 c-0.589 0-1.064-0.414-1.063-0.928V12.66H32.408z M32.617 7.791c0.031-0.6 0.541-1.062 1.136-1.029l0.497 0 c0.597 0 1.1 0.5 1 1.143l-0.075 1.488h-2.665L32.617 7.791z"/>
	<path fill="#F9F9FA" d="M74.16 7.82c-0.1-0.793-0.323-1.49-0.677-2.092c-0.356-0.602-0.886-1.072-1.591-1.422 c-0.711-0.348-1.671-0.523-2.887-0.523c-1.17 0-2.103 0.197-2.799 0.57c-0.706 0.379-1.239 0.873-1.612 1.5 c-0.146 0.248-0.274 0.512-0.383 0.791c-0.109-0.324-0.246-0.627-0.411-0.908c-0.354-0.602-0.884-1.072-1.597-1.422 c-0.703-0.348-1.666-0.523-2.883-0.523c-1.166 0-2.104 0.197-2.796 0.57c-0.702 0.379-1.238 0.873-1.607 1.5 c-0.368 0.615-0.61 1.312-0.728 2.102c-0.112 0.789-0.178 1.588-0.178 2.404c0 0.9 0.1 1.8 0.2 2.6 c0.095 0.8 0.3 1.5 0.7 2.078c0.354 0.6 0.9 1.1 1.6 1.383c0.708 0.3 1.7 0.5 2.9 0.5 c1.173 0 2.106-0.182 2.805-0.545c0.702-0.359 1.237-0.848 1.606-1.455c0.146-0.246 0.273-0.512 0.382-0.791 c0.108 0.3 0.2 0.6 0.4 0.908c0.357 0.6 0.9 1.1 1.6 1.383c0.704 0.3 1.7 0.5 2.9 0.5 c1.168 0 2.101-0.182 2.8-0.545c0.703-0.359 1.239-0.848 1.608-1.455c0.369-0.604 0.61-1.303 0.72-2.092 c0.121-0.783 0.179-1.59 0.179-2.402C74.312 9.5 74.3 8.6 74.2 7.82z M59.712 14.24l-0.425 0 c-0.504 0.029-0.939-0.365-0.967-0.875l-0.308-5.92c-0.024-0.51 0.364-0.943 0.873-0.973l0.421-0.021 c0.509-0.027 0.9 0.4 1 0.875l0.308 5.92C60.608 13.8 60.2 14.2 59.7 14.24z M69.974 13.4 c-0.027 0.51-0.462 0.9-0.968 0.875l-0.421-0.021c-0.508-0.025-0.899-0.463-0.873-0.973l0.307-5.92 c0.03-0.51 0.466-0.904 0.969-0.875L69.412 6.5c0.509 0 0.9 0.5 0.9 0.973L69.974 13.393z"/>
	<path fill="#F9F9FA" d="M101.893 10.814c-0.304-0.488-0.678-0.869-1.124-1.15c-0.445-0.291-0.931-0.51-1.448-0.666 c-0.511-0.15-1.001-0.299-1.446-0.441c-0.446-0.133-0.821-0.295-1.117-0.473c-0.303-0.18-0.455-0.441-0.455-0.799 c0-0.309 0.104-0.549 0.307-0.715c0.204-0.174 0.462-0.254 0.775-0.254c0.361 0 0.6 0.1 0.8 0.3 c0.197 0.2 0.3 0.6 0.3 1.104l3.557-0.164c0-2.611-1.553-3.762-4.679-3.762c-0.847 0-1.581 0.104-2.202 0.3 c-0.622 0.201-1.14 0.477-1.547 0.83c-0.408 0.355-0.709 0.768-0.906 1.236c-0.202 0.471-0.307 0.986-0.307 1.5 c0 0.8 0.2 1.4 0.5 1.908c0.3 0.5 0.7 0.9 1.1 1.168c0.448 0.3 0.9 0.5 1.4 0.7 c0.519 0.2 1 0.3 1.4 0.484c0.447 0.2 0.8 0.3 1.1 0.533c0.298 0.2 0.4 0.5 0.4 0.9 c0 0.338-0.12 0.604-0.354 0.787c-0.242 0.184-0.521 0.277-0.844 0.277c-0.393 0-0.683-0.15-0.883-0.441 c-0.104-0.135-0.182-0.312-0.226-0.533c-0.053-0.211-0.078-0.443-0.078-0.691h-0.007v-0.1l-3.636-0.432l-0.014 0.707h0.003 c0.004 1.4 0.4 2.2 1.1 2.932c0.76 0.7 2 1 3.8 1.041c0.786 0 1.489-0.09 2.11-0.277 c0.623-0.186 1.146-0.465 1.574-0.836c0.421-0.371 0.748-0.811 0.975-1.318c0.231-0.51 0.351-1.076 0.351-1.689 C102.344 11.9 102.2 11.3 101.9 10.814z"/>
</g>
</svg>
